<svg width="200" height="100" viewBox="0 0 200 100" fill="none" xmlns="http://www.w3.org/2000/svg">
<path fill-rule="evenodd" clip-rule="evenodd" d="M200 0H0V100H200V0ZM91 61.8081C93.832 61.8081 95.6079 61.136 97.144 60.272L98.6321 66.6079C96.616 68.0481 92.968 68.6721 89.656 68.6721C81.6399 68.6721 74.4399 64.1599 74.4399 51.2C74.4399 37.76 82.7439 33.728 89.8479 33.728C93.6399 33.728 96.4241 34.3521 98.1521 35.0239L96.7119 41.6001C95.2241 40.8799 93.448 40.592 90.5681 40.592C85.2881 40.592 82.552 44.2881 82.552 51.2C82.552 57.104 84.856 61.8081 91 61.8081ZM110.715 62C114.459 62 116.043 60.8479 116.043 58.7839C116.043 56.667 113.599 55.658 110.689 54.4565C106.407 52.6887 101.115 50.5044 101.115 43.76C101.115 36.6079 106.107 33.728 112.875 33.728C116.763 33.728 120.603 34.448 122.955 35.8401L120.507 42.3201C119.163 41.3601 116.091 40.3999 112.923 40.3999C110.427 40.3999 108.843 41.2639 108.843 43.0879C108.843 45.1533 111.303 46.1826 114.226 47.4055C118.503 49.1951 123.771 51.3992 123.771 57.8721C123.771 65.6001 118.539 68.6721 111.147 68.6721C106.347 68.6721 102.123 67.4719 100.395 66.5601L102.891 60.0801C104.283 60.8 107.547 62 110.715 62Z" fill="#5F3A94"/>
</svg>
