<svg width="1025" height="542" viewBox="0 0 1025 542" fill="none" xmlns="http://www.w3.org/2000/svg">
<circle cx="24.6023" cy="55.6023" r="7.60227" fill="#C4C4C4"/>
<circle cx="53.322" cy="55.6023" r="7.60227" fill="#C4C4C4"/>
<circle cx="82.0417" cy="55.6023" r="7.60227" fill="#C4C4C4"/>
<circle cx="110.761" cy="55.6023" r="7.60227" fill="#C4C4C4"/>
<circle cx="139.481" cy="55.6023" r="7.60227" fill="#C4C4C4"/>
<circle cx="168.201" cy="55.6023" r="7.60227" fill="#C4C4C4"/>
<circle cx="196.92" cy="55.6023" r="7.60227" fill="#C4C4C4"/>
<circle cx="225.64" cy="55.6023" r="7.60227" fill="#C4C4C4"/>
<circle cx="254.36" cy="55.6023" r="7.60227" fill="#C4C4C4"/>
<circle cx="283.08" cy="55.6023" r="7.60227" fill="#C4C4C4"/>
<circle cx="311.799" cy="55.6023" r="7.60227" fill="#C4C4C4"/>
<circle cx="340.519" cy="55.6023" r="7.60227" fill="#C4C4C4"/>
<circle cx="369.239" cy="55.6023" r="7.60227" fill="#C4C4C4"/>
<circle cx="397.958" cy="55.6023" r="7.60227" fill="#C4C4C4"/>
<circle cx="426.678" cy="55.6023" r="7.60227" fill="#C4C4C4"/>
<circle cx="455.398" cy="55.6023" r="7.60227" fill="#C4C4C4"/>
<circle cx="484.117" cy="55.6023" r="7.60227" fill="#C4C4C4"/>
<circle cx="512.837" cy="55.6023" r="7.60227" fill="#C4C4C4"/>
<circle cx="541.557" cy="55.6023" r="7.60227" fill="#C4C4C4"/>
<circle cx="570.277" cy="55.6023" r="7.60227" fill="#C4C4C4"/>
<circle cx="598.996" cy="55.6023" r="7.60227" fill="#C4C4C4"/>
<circle cx="627.716" cy="55.6023" r="7.60227" fill="#C4C4C4"/>
<circle cx="656.436" cy="55.6023" r="7.60227" fill="#C4C4C4"/>
<circle cx="685.155" cy="55.6023" r="7.60227" fill="#C4C4C4"/>
<circle cx="713.875" cy="55.6023" r="7.60227" fill="#C4C4C4"/>
<circle cx="742.595" cy="55.6023" r="7.60227" fill="#C4C4C4"/>
<circle cx="771.314" cy="55.6023" r="7.60227" fill="#C4C4C4"/>
<circle cx="800.034" cy="55.6023" r="7.60227" fill="#C4C4C4"/>
<circle cx="828.754" cy="55.6023" r="7.60227" fill="#C4C4C4"/>
<circle cx="857.474" cy="55.6023" r="7.60227" fill="#C4C4C4"/>
<circle cx="886.193" cy="55.6023" r="7.60227" fill="#C4C4C4"/>
<circle cx="914.913" cy="55.6023" r="7.60227" fill="#C4C4C4"/>
<circle cx="943.633" cy="55.6023" r="7.60227" fill="#C4C4C4"/>
<circle cx="972.352" cy="55.6023" r="7.60227" fill="#C4C4C4"/>
<circle cx="1001.07" cy="55.6023" r="7.60227" fill="#C4C4C4"/>
<circle cx="24.6023" cy="84.322" r="7.60227" fill="#C4C4C4"/>
<circle cx="53.322" cy="84.322" r="7.60227" fill="#C4C4C4"/>
<circle cx="82.0417" cy="84.322" r="7.60227" fill="#C4C4C4"/>
<circle cx="110.761" cy="84.322" r="7.60227" fill="#C4C4C4"/>
<circle cx="139.481" cy="84.322" r="7.60227" fill="#C4C4C4"/>
<circle cx="168.201" cy="84.322" r="7.60227" fill="#C4C4C4"/>
<circle cx="196.92" cy="84.322" r="7.60227" fill="#C4C4C4"/>
<circle cx="225.64" cy="84.322" r="7.60227" fill="#C4C4C4"/>
<circle cx="254.36" cy="84.322" r="7.60227" fill="#C4C4C4"/>
<circle cx="283.08" cy="84.322" r="7.60227" fill="#C4C4C4"/>
<circle cx="311.799" cy="84.322" r="7.60227" fill="#C4C4C4"/>
<circle cx="340.519" cy="84.322" r="7.60227" fill="#C4C4C4"/>
<circle cx="369.239" cy="84.322" r="7.60227" fill="#C4C4C4"/>
<circle cx="397.958" cy="84.322" r="7.60227" fill="#C4C4C4"/>
<circle cx="426.678" cy="84.322" r="7.60227" fill="#C4C4C4"/>
<circle cx="455.398" cy="84.322" r="7.60227" fill="#C4C4C4"/>
<circle cx="484.117" cy="84.322" r="7.60227" fill="#C4C4C4"/>
<circle cx="512.837" cy="84.322" r="7.60227" fill="#C4C4C4"/>
<circle cx="541.557" cy="84.322" r="7.60227" fill="#C4C4C4"/>
<circle cx="570.277" cy="84.322" r="7.60227" fill="#C4C4C4"/>
<circle cx="598.996" cy="84.322" r="7.60227" fill="#C4C4C4"/>
<circle cx="627.716" cy="84.322" r="7.60227" fill="#C4C4C4"/>
<circle cx="656.436" cy="84.322" r="7.60227" fill="#C4C4C4"/>
<circle cx="685.155" cy="84.322" r="7.60227" fill="#C4C4C4"/>
<circle cx="713.875" cy="84.322" r="7.60227" fill="#C4C4C4"/>
<circle cx="742.595" cy="84.322" r="7.60227" fill="#C4C4C4"/>
<circle cx="771.314" cy="84.322" r="7.60227" fill="#C4C4C4"/>
<circle cx="800.034" cy="84.322" r="7.60227" fill="#C4C4C4"/>
<circle cx="828.754" cy="84.322" r="7.60227" fill="#C4C4C4"/>
<circle cx="857.474" cy="84.322" r="7.60227" fill="#C4C4C4"/>
<circle cx="886.193" cy="84.322" r="7.60227" fill="#C4C4C4"/>
<circle cx="914.913" cy="84.322" r="7.60227" fill="#C4C4C4"/>
<circle cx="943.633" cy="84.322" r="7.60227" fill="#C4C4C4"/>
<circle cx="972.352" cy="84.322" r="7.60227" fill="#C4C4C4"/>
<circle cx="1001.07" cy="84.322" r="7.60227" fill="#C4C4C4"/>
<circle cx="24.6023" cy="113.042" r="7.60227" fill="#C4C4C4"/>
<circle cx="53.322" cy="113.042" r="7.60227" fill="#C4C4C4"/>
<circle cx="82.0417" cy="113.042" r="7.60227" fill="#C4C4C4"/>
<circle cx="110.761" cy="113.042" r="7.60227" fill="#C4C4C4"/>
<circle cx="139.481" cy="113.042" r="7.60227" fill="#C4C4C4"/>
<circle cx="168.201" cy="113.042" r="7.60227" fill="#C4C4C4"/>
<circle cx="196.92" cy="113.042" r="7.60227" fill="#C4C4C4"/>
<circle cx="225.64" cy="113.042" r="7.60227" fill="#C4C4C4"/>
<circle cx="254.36" cy="113.042" r="7.60227" fill="#C4C4C4"/>
<circle cx="283.08" cy="113.042" r="7.60227" fill="#C4C4C4"/>
<circle cx="311.799" cy="113.042" r="7.60227" fill="#C4C4C4"/>
<circle cx="340.519" cy="113.042" r="7.60227" fill="#C4C4C4"/>
<circle cx="369.239" cy="113.042" r="7.60227" fill="#C4C4C4"/>
<circle cx="397.958" cy="113.042" r="7.60227" fill="#C4C4C4"/>
<circle cx="426.678" cy="113.042" r="7.60227" fill="#C4C4C4"/>
<circle cx="455.398" cy="113.042" r="7.60227" fill="#C4C4C4"/>
<circle cx="484.117" cy="113.042" r="7.60227" fill="#C4C4C4"/>
<circle cx="512.837" cy="113.042" r="7.60227" fill="#C4C4C4"/>
<circle cx="541.557" cy="113.042" r="7.60227" fill="#C4C4C4"/>
<circle cx="570.277" cy="113.042" r="7.60227" fill="#C4C4C4"/>
<circle cx="598.996" cy="113.042" r="7.60227" fill="#C4C4C4"/>
<circle cx="627.716" cy="113.042" r="7.60227" fill="#C4C4C4"/>
<circle cx="656.436" cy="113.042" r="7.60227" fill="#C4C4C4"/>
<circle cx="685.155" cy="113.042" r="7.60227" fill="#C4C4C4"/>
<circle cx="713.875" cy="113.042" r="7.60227" fill="#C4C4C4"/>
<circle cx="742.595" cy="113.042" r="7.60227" fill="#C4C4C4"/>
<circle cx="771.314" cy="113.042" r="7.60227" fill="#C4C4C4"/>
<circle cx="800.034" cy="113.042" r="7.60227" fill="#C4C4C4"/>
<circle cx="828.754" cy="113.042" r="7.60227" fill="#C4C4C4"/>
<circle cx="857.474" cy="113.042" r="7.60227" fill="#C4C4C4"/>
<circle cx="886.193" cy="113.042" r="7.60227" fill="#C4C4C4"/>
<circle cx="914.913" cy="113.042" r="7.60227" fill="#C4C4C4"/>
<circle cx="943.633" cy="113.042" r="7.60227" fill="#C4C4C4"/>
<circle cx="972.352" cy="113.042" r="7.60227" fill="#C4C4C4"/>
<circle cx="1001.07" cy="113.042" r="7.60227" fill="#C4C4C4"/>
<circle cx="24.6023" cy="141.761" r="7.60227" fill="#C4C4C4"/>
<circle cx="53.322" cy="141.761" r="7.60227" fill="#C4C4C4"/>
<circle cx="82.0417" cy="141.761" r="7.60227" fill="#C4C4C4"/>
<circle cx="110.761" cy="141.761" r="7.60227" fill="#C4C4C4"/>
<circle cx="139.481" cy="141.761" r="7.60227" fill="#C4C4C4"/>
<circle cx="168.201" cy="141.761" r="7.60227" fill="#C4C4C4"/>
<circle cx="196.92" cy="141.761" r="7.60227" fill="#C4C4C4"/>
<circle cx="225.64" cy="141.761" r="7.60227" fill="#C4C4C4"/>
<circle cx="254.36" cy="141.761" r="7.60227" fill="#C4C4C4"/>
<circle cx="283.08" cy="141.761" r="7.60227" fill="#C4C4C4"/>
<circle cx="311.799" cy="141.761" r="7.60227" fill="#C4C4C4"/>
<circle cx="340.519" cy="141.761" r="7.60227" fill="#C4C4C4"/>
<circle cx="369.239" cy="141.761" r="7.60227" fill="#C4C4C4"/>
<circle cx="397.958" cy="141.761" r="7.60227" fill="#C4C4C4"/>
<circle cx="426.678" cy="141.761" r="7.60227" fill="#C4C4C4"/>
<circle cx="455.398" cy="141.761" r="7.60227" fill="#C4C4C4"/>
<circle cx="484.117" cy="141.761" r="7.60227" fill="#C4C4C4"/>
<circle cx="512.837" cy="141.761" r="7.60227" fill="#C4C4C4"/>
<circle cx="541.557" cy="141.761" r="7.60227" fill="#C4C4C4"/>
<circle cx="570.277" cy="141.761" r="7.60227" fill="#C4C4C4"/>
<circle cx="598.996" cy="141.761" r="7.60227" fill="#C4C4C4"/>
<circle cx="627.716" cy="141.761" r="7.60227" fill="#C4C4C4"/>
<circle cx="656.436" cy="141.761" r="7.60227" fill="#C4C4C4"/>
<circle cx="685.155" cy="141.761" r="7.60227" fill="#C4C4C4"/>
<circle cx="713.875" cy="141.761" r="7.60227" fill="#C4C4C4"/>
<circle cx="742.595" cy="141.761" r="7.60227" fill="#C4C4C4"/>
<circle cx="771.314" cy="141.761" r="7.60227" fill="#C4C4C4"/>
<circle cx="800.034" cy="141.761" r="7.60227" fill="#C4C4C4"/>
<circle cx="828.754" cy="141.761" r="7.60227" fill="#C4C4C4"/>
<circle cx="857.474" cy="141.761" r="7.60227" fill="#C4C4C4"/>
<circle cx="886.193" cy="141.761" r="7.60227" fill="#C4C4C4"/>
<circle cx="914.913" cy="141.761" r="7.60227" fill="#C4C4C4"/>
<circle cx="943.633" cy="141.761" r="7.60227" fill="#C4C4C4"/>
<circle cx="972.352" cy="141.761" r="7.60227" fill="#C4C4C4"/>
<circle cx="1001.07" cy="141.761" r="7.60227" fill="#C4C4C4"/>
<circle cx="24.6023" cy="170.481" r="7.60227" fill="#C4C4C4"/>
<circle cx="53.322" cy="170.481" r="7.60227" fill="#C4C4C4"/>
<circle cx="82.0417" cy="170.481" r="7.60227" fill="#C4C4C4"/>
<circle cx="110.761" cy="170.481" r="7.60227" fill="#C4C4C4"/>
<circle cx="139.481" cy="170.481" r="7.60227" fill="#C4C4C4"/>
<circle cx="168.201" cy="170.481" r="7.60227" fill="#C4C4C4"/>
<circle cx="196.92" cy="170.481" r="7.60227" fill="#C4C4C4"/>
<circle cx="225.64" cy="170.481" r="7.60227" fill="#C4C4C4"/>
<circle cx="254.36" cy="170.481" r="7.60227" fill="#C4C4C4"/>
<circle cx="283.08" cy="170.481" r="7.60227" fill="#C4C4C4"/>
<circle cx="311.799" cy="170.481" r="7.60227" fill="#C4C4C4"/>
<circle cx="340.519" cy="170.481" r="7.60227" fill="#C4C4C4"/>
<circle cx="369.239" cy="170.481" r="7.60227" fill="#C4C4C4"/>
<circle cx="397.958" cy="170.481" r="7.60227" fill="#C4C4C4"/>
<circle cx="426.678" cy="170.481" r="7.60227" fill="#C4C4C4"/>
<circle cx="455.398" cy="170.481" r="7.60227" fill="#C4C4C4"/>
<circle cx="484.117" cy="170.481" r="7.60227" fill="#C4C4C4"/>
<circle cx="512.837" cy="170.481" r="7.60227" fill="#C4C4C4"/>
<circle cx="541.557" cy="170.481" r="7.60227" fill="#C4C4C4"/>
<circle cx="570.277" cy="170.481" r="7.60227" fill="#C4C4C4"/>
<circle cx="598.996" cy="170.481" r="7.60227" fill="#C4C4C4"/>
<circle cx="627.716" cy="170.481" r="7.60227" fill="#C4C4C4"/>
<circle cx="656.436" cy="170.481" r="7.60227" fill="#C4C4C4"/>
<circle cx="685.155" cy="170.481" r="7.60227" fill="#C4C4C4"/>
<circle cx="713.875" cy="170.481" r="7.60227" fill="#C4C4C4"/>
<circle cx="742.595" cy="170.481" r="7.60227" fill="#C4C4C4"/>
<circle cx="771.314" cy="170.481" r="7.60227" fill="#C4C4C4"/>
<circle cx="800.034" cy="170.481" r="7.60227" fill="#C4C4C4"/>
<circle cx="828.754" cy="170.481" r="7.60227" fill="#C4C4C4"/>
<circle cx="857.474" cy="170.481" r="7.60227" fill="#C4C4C4"/>
<circle cx="886.193" cy="170.481" r="7.60227" fill="#C4C4C4"/>
<circle cx="914.913" cy="170.481" r="7.60227" fill="#C4C4C4"/>
<circle cx="943.633" cy="170.481" r="7.60227" fill="#C4C4C4"/>
<circle cx="972.352" cy="170.481" r="7.60227" fill="#C4C4C4"/>
<circle cx="1001.07" cy="170.481" r="7.60227" fill="#C4C4C4"/>
<circle cx="24.6023" cy="199.201" r="7.60227" fill="#C4C4C4"/>
<circle cx="53.322" cy="199.201" r="7.60227" fill="#C4C4C4"/>
<circle cx="82.0417" cy="199.201" r="7.60227" fill="#C4C4C4"/>
<circle cx="110.761" cy="199.201" r="7.60227" fill="#C4C4C4"/>
<circle cx="139.481" cy="199.201" r="7.60227" fill="#C4C4C4"/>
<circle cx="168.201" cy="199.201" r="7.60227" fill="#C4C4C4"/>
<circle cx="196.92" cy="199.201" r="7.60227" fill="#C4C4C4"/>
<circle cx="225.64" cy="199.201" r="7.60227" fill="#C4C4C4"/>
<circle cx="254.36" cy="199.201" r="7.60227" fill="#C4C4C4"/>
<circle cx="283.08" cy="199.201" r="7.60227" fill="#C4C4C4"/>
<circle cx="311.799" cy="199.201" r="7.60227" fill="#C4C4C4"/>
<circle cx="340.519" cy="199.201" r="7.60227" fill="#C4C4C4"/>
<circle cx="369.239" cy="199.201" r="7.60227" fill="#C4C4C4"/>
<circle cx="397.958" cy="199.201" r="7.60227" fill="#C4C4C4"/>
<circle cx="426.678" cy="199.201" r="7.60227" fill="#C4C4C4"/>
<circle cx="455.398" cy="199.201" r="7.60227" fill="#C4C4C4"/>
<circle cx="484.117" cy="199.201" r="7.60227" fill="#C4C4C4"/>
<circle cx="512.837" cy="199.201" r="7.60227" fill="#C4C4C4"/>
<circle cx="541.557" cy="199.201" r="7.60227" fill="#C4C4C4"/>
<circle cx="570.277" cy="199.201" r="7.60227" fill="#C4C4C4"/>
<circle cx="598.996" cy="199.201" r="7.60227" fill="#C4C4C4"/>
<circle cx="627.716" cy="199.201" r="7.60227" fill="#C4C4C4"/>
<circle cx="656.436" cy="199.201" r="7.60227" fill="#C4C4C4"/>
<circle cx="685.155" cy="199.201" r="7.60227" fill="#C4C4C4"/>
<circle cx="713.875" cy="199.201" r="7.60227" fill="#C4C4C4"/>
<circle cx="742.595" cy="199.201" r="7.60227" fill="#C4C4C4"/>
<circle cx="771.314" cy="199.201" r="7.60227" fill="#C4C4C4"/>
<circle cx="800.034" cy="199.201" r="7.60227" fill="#C4C4C4"/>
<circle cx="828.754" cy="199.201" r="7.60227" fill="#C4C4C4"/>
<circle cx="857.474" cy="199.201" r="7.60227" fill="#C4C4C4"/>
<circle cx="886.193" cy="199.201" r="7.60227" fill="#C4C4C4"/>
<circle cx="914.913" cy="199.201" r="7.60227" fill="#C4C4C4"/>
<circle cx="943.633" cy="199.201" r="7.60227" fill="#C4C4C4"/>
<circle cx="972.352" cy="199.201" r="7.60227" fill="#C4C4C4"/>
<circle cx="1001.07" cy="199.201" r="7.60227" fill="#C4C4C4"/>
<circle cx="24.6023" cy="227.92" r="7.60227" fill="#C4C4C4"/>
<circle cx="53.322" cy="227.92" r="7.60227" fill="#C4C4C4"/>
<circle cx="82.0417" cy="227.92" r="7.60227" fill="#C4C4C4"/>
<circle cx="110.761" cy="227.92" r="7.60227" fill="#C4C4C4"/>
<circle cx="139.481" cy="227.92" r="7.60227" fill="#C4C4C4"/>
<circle cx="168.201" cy="227.92" r="7.60227" fill="#C4C4C4"/>
<circle cx="196.92" cy="227.92" r="7.60227" fill="#C4C4C4"/>
<circle cx="225.64" cy="227.92" r="7.60227" fill="#C4C4C4"/>
<circle cx="254.36" cy="227.92" r="7.60227" fill="#C4C4C4"/>
<circle cx="283.08" cy="227.92" r="7.60227" fill="#C4C4C4"/>
<circle cx="311.799" cy="227.92" r="7.60227" fill="#C4C4C4"/>
<circle cx="340.519" cy="227.92" r="7.60227" fill="#C4C4C4"/>
<circle cx="369.239" cy="227.92" r="7.60227" fill="#C4C4C4"/>
<circle cx="397.958" cy="227.92" r="7.60227" fill="#C4C4C4"/>
<circle cx="426.678" cy="227.92" r="7.60227" fill="#C4C4C4"/>
<circle cx="455.398" cy="227.92" r="7.60227" fill="#C4C4C4"/>
<circle cx="484.117" cy="227.92" r="7.60227" fill="#C4C4C4"/>
<circle cx="512.837" cy="227.92" r="7.60227" fill="#C4C4C4"/>
<circle cx="541.557" cy="227.92" r="7.60227" fill="#C4C4C4"/>
<circle cx="570.277" cy="227.92" r="7.60227" fill="#C4C4C4"/>
<circle cx="598.996" cy="227.92" r="7.60227" fill="#C4C4C4"/>
<circle cx="627.716" cy="227.92" r="7.60227" fill="#C4C4C4"/>
<circle cx="656.436" cy="227.92" r="7.60227" fill="#C4C4C4"/>
<circle cx="685.155" cy="227.92" r="7.60227" fill="#C4C4C4"/>
<circle cx="713.875" cy="227.92" r="7.60227" fill="#C4C4C4"/>
<circle cx="742.595" cy="227.92" r="7.60227" fill="#C4C4C4"/>
<circle cx="771.314" cy="227.92" r="7.60227" fill="#C4C4C4"/>
<circle cx="800.034" cy="227.92" r="7.60227" fill="#C4C4C4"/>
<circle cx="828.754" cy="227.92" r="7.60227" fill="#C4C4C4"/>
<circle cx="857.474" cy="227.92" r="7.60227" fill="#C4C4C4"/>
<circle cx="886.193" cy="227.92" r="7.60227" fill="#C4C4C4"/>
<circle cx="914.913" cy="227.92" r="7.60227" fill="#C4C4C4"/>
<circle cx="943.633" cy="227.92" r="7.60227" fill="#C4C4C4"/>
<circle cx="972.352" cy="227.92" r="7.60227" fill="#C4C4C4"/>
<circle cx="1001.07" cy="227.92" r="7.60227" fill="#C4C4C4"/>
<circle cx="24.6023" cy="256.64" r="7.60227" fill="#C4C4C4"/>
<circle cx="53.322" cy="256.64" r="7.60227" fill="#C4C4C4"/>
<circle cx="82.0417" cy="256.64" r="7.60227" fill="#C4C4C4"/>
<circle cx="110.761" cy="256.64" r="7.60227" fill="#C4C4C4"/>
<circle cx="139.481" cy="256.64" r="7.60227" fill="#C4C4C4"/>
<circle cx="168.201" cy="256.64" r="7.60227" fill="#C4C4C4"/>
<circle cx="196.92" cy="256.64" r="7.60227" fill="#C4C4C4"/>
<circle cx="225.64" cy="256.64" r="7.60227" fill="#C4C4C4"/>
<circle cx="254.36" cy="256.64" r="7.60227" fill="#C4C4C4"/>
<circle cx="283.08" cy="256.64" r="7.60227" fill="#C4C4C4"/>
<circle cx="311.799" cy="256.64" r="7.60227" fill="#C4C4C4"/>
<circle cx="340.519" cy="256.64" r="7.60227" fill="#C4C4C4"/>
<circle cx="369.239" cy="256.64" r="7.60227" fill="#C4C4C4"/>
<circle cx="397.958" cy="256.64" r="7.60227" fill="#C4C4C4"/>
<circle cx="426.678" cy="256.64" r="7.60227" fill="#C4C4C4"/>
<circle cx="455.398" cy="256.64" r="7.60227" fill="#C4C4C4"/>
<circle cx="484.117" cy="256.64" r="7.60227" fill="#C4C4C4"/>
<circle cx="512.837" cy="256.64" r="7.60227" fill="#C4C4C4"/>
<circle cx="541.557" cy="256.64" r="7.60227" fill="#C4C4C4"/>
<circle cx="570.277" cy="256.64" r="7.60227" fill="#C4C4C4"/>
<circle cx="598.996" cy="256.64" r="7.60227" fill="#C4C4C4"/>
<circle cx="627.716" cy="256.64" r="7.60227" fill="#C4C4C4"/>
<circle cx="656.436" cy="256.64" r="7.60227" fill="#C4C4C4"/>
<circle cx="685.155" cy="256.64" r="7.60227" fill="#C4C4C4"/>
<circle cx="713.875" cy="256.64" r="7.60227" fill="#C4C4C4"/>
<circle cx="742.595" cy="256.64" r="7.60227" fill="#C4C4C4"/>
<circle cx="771.314" cy="256.64" r="7.60227" fill="#C4C4C4"/>
<circle cx="800.034" cy="256.64" r="7.60227" fill="#C4C4C4"/>
<circle cx="828.754" cy="256.64" r="7.60227" fill="#C4C4C4"/>
<circle cx="857.474" cy="256.64" r="7.60227" fill="#C4C4C4"/>
<circle cx="886.193" cy="256.64" r="7.60227" fill="#C4C4C4"/>
<circle cx="914.913" cy="256.64" r="7.60227" fill="#C4C4C4"/>
<circle cx="943.633" cy="256.64" r="7.60227" fill="#C4C4C4"/>
<circle cx="972.352" cy="256.64" r="7.60227" fill="#C4C4C4"/>
<circle cx="1001.07" cy="256.64" r="7.60227" fill="#C4C4C4"/>
<circle cx="24.6023" cy="285.36" r="7.60227" fill="#C4C4C4"/>
<circle cx="53.322" cy="285.36" r="7.60227" fill="#C4C4C4"/>
<circle cx="82.0417" cy="285.36" r="7.60227" fill="#C4C4C4"/>
<circle cx="110.761" cy="285.36" r="7.60227" fill="#C4C4C4"/>
<circle cx="139.481" cy="285.36" r="7.60227" fill="#C4C4C4"/>
<circle cx="168.201" cy="285.36" r="7.60227" fill="#C4C4C4"/>
<circle cx="196.92" cy="285.36" r="7.60227" fill="#C4C4C4"/>
<circle cx="225.64" cy="285.36" r="7.60227" fill="#C4C4C4"/>
<circle cx="254.36" cy="285.36" r="7.60227" fill="#C4C4C4"/>
<circle cx="283.08" cy="285.36" r="7.60227" fill="#C4C4C4"/>
<circle cx="311.799" cy="285.36" r="7.60227" fill="#C4C4C4"/>
<circle cx="340.519" cy="285.36" r="7.60227" fill="#C4C4C4"/>
<circle cx="369.239" cy="285.36" r="7.60227" fill="#C4C4C4"/>
<circle cx="397.958" cy="285.36" r="7.60227" fill="#C4C4C4"/>
<circle cx="426.678" cy="285.36" r="7.60227" fill="#C4C4C4"/>
<circle cx="455.398" cy="285.36" r="7.60227" fill="#C4C4C4"/>
<circle cx="484.117" cy="285.36" r="7.60227" fill="#C4C4C4"/>
<circle cx="512.837" cy="285.36" r="7.60227" fill="#C4C4C4"/>
<circle cx="541.557" cy="285.36" r="7.60227" fill="#C4C4C4"/>
<circle cx="570.277" cy="285.36" r="7.60227" fill="#C4C4C4"/>
<circle cx="598.996" cy="285.36" r="7.60227" fill="#C4C4C4"/>
<circle cx="627.716" cy="285.36" r="7.60227" fill="#C4C4C4"/>
<circle cx="656.436" cy="285.36" r="7.60227" fill="#C4C4C4"/>
<circle cx="685.155" cy="285.36" r="7.60227" fill="#C4C4C4"/>
<circle cx="713.875" cy="285.36" r="7.60227" fill="#C4C4C4"/>
<circle cx="742.595" cy="285.36" r="7.60227" fill="#C4C4C4"/>
<circle cx="771.314" cy="285.36" r="7.60227" fill="#C4C4C4"/>
<circle cx="800.034" cy="285.36" r="7.60227" fill="#C4C4C4"/>
<circle cx="828.754" cy="285.36" r="7.60227" fill="#C4C4C4"/>
<circle cx="857.474" cy="285.36" r="7.60227" fill="#C4C4C4"/>
<circle cx="886.193" cy="285.36" r="7.60227" fill="#C4C4C4"/>
<circle cx="914.913" cy="285.36" r="7.60227" fill="#C4C4C4"/>
<circle cx="943.633" cy="285.36" r="7.60227" fill="#C4C4C4"/>
<circle cx="972.352" cy="285.36" r="7.60227" fill="#C4C4C4"/>
<circle cx="1001.07" cy="285.36" r="7.60227" fill="#C4C4C4"/>
<circle cx="24.6023" cy="314.08" r="7.60227" fill="#C4C4C4"/>
<circle cx="53.322" cy="314.08" r="7.60227" fill="#C4C4C4"/>
<circle cx="82.0417" cy="314.08" r="7.60227" fill="#C4C4C4"/>
<circle cx="110.761" cy="314.08" r="7.60227" fill="#C4C4C4"/>
<circle cx="139.481" cy="314.08" r="7.60227" fill="#C4C4C4"/>
<circle cx="168.201" cy="314.08" r="7.60227" fill="#C4C4C4"/>
<circle cx="196.92" cy="314.08" r="7.60227" fill="#C4C4C4"/>
<circle cx="225.64" cy="314.08" r="7.60227" fill="#C4C4C4"/>
<circle cx="254.36" cy="314.08" r="7.60227" fill="#C4C4C4"/>
<circle cx="283.08" cy="314.08" r="7.60227" fill="#C4C4C4"/>
<circle cx="311.799" cy="314.08" r="7.60227" fill="#C4C4C4"/>
<circle cx="340.519" cy="314.08" r="7.60227" fill="#C4C4C4"/>
<circle cx="369.239" cy="314.08" r="7.60227" fill="#C4C4C4"/>
<circle cx="397.958" cy="314.08" r="7.60227" fill="#C4C4C4"/>
<circle cx="426.678" cy="314.08" r="7.60227" fill="#C4C4C4"/>
<circle cx="455.398" cy="314.08" r="7.60227" fill="#C4C4C4"/>
<circle cx="484.117" cy="314.08" r="7.60227" fill="#C4C4C4"/>
<circle cx="512.837" cy="314.08" r="7.60227" fill="#C4C4C4"/>
<circle cx="541.557" cy="314.08" r="7.60227" fill="#C4C4C4"/>
<circle cx="570.277" cy="314.08" r="7.60227" fill="#C4C4C4"/>
<circle cx="598.996" cy="314.08" r="7.60227" fill="#C4C4C4"/>
<circle cx="627.716" cy="314.08" r="7.60227" fill="#C4C4C4"/>
<circle cx="656.436" cy="314.08" r="7.60227" fill="#C4C4C4"/>
<circle cx="685.155" cy="314.08" r="7.60227" fill="#C4C4C4"/>
<circle cx="713.875" cy="314.08" r="7.60227" fill="#C4C4C4"/>
<circle cx="742.595" cy="314.08" r="7.60227" fill="#C4C4C4"/>
<circle cx="771.314" cy="314.08" r="7.60227" fill="#C4C4C4"/>
<circle cx="800.034" cy="314.08" r="7.60227" fill="#C4C4C4"/>
<circle cx="828.754" cy="314.08" r="7.60227" fill="#C4C4C4"/>
<circle cx="857.474" cy="314.08" r="7.60227" fill="#C4C4C4"/>
<circle cx="886.193" cy="314.08" r="7.60227" fill="#C4C4C4"/>
<circle cx="914.913" cy="314.08" r="7.60227" fill="#C4C4C4"/>
<circle cx="943.633" cy="314.08" r="7.60227" fill="#C4C4C4"/>
<circle cx="972.352" cy="314.08" r="7.60227" fill="#C4C4C4"/>
<circle cx="1001.07" cy="314.08" r="7.60227" fill="#C4C4C4"/>
<circle cx="24.6023" cy="342.799" r="7.60227" fill="#C4C4C4"/>
<circle cx="53.322" cy="342.799" r="7.60227" fill="#C4C4C4"/>
<circle cx="82.0417" cy="342.799" r="7.60227" fill="#C4C4C4"/>
<circle cx="110.761" cy="342.799" r="7.60227" fill="#C4C4C4"/>
<circle cx="139.481" cy="342.799" r="7.60227" fill="#C4C4C4"/>
<circle cx="168.201" cy="342.799" r="7.60227" fill="#C4C4C4"/>
<circle cx="196.92" cy="342.799" r="7.60227" fill="#C4C4C4"/>
<circle cx="225.64" cy="342.799" r="7.60227" fill="#C4C4C4"/>
<circle cx="254.36" cy="342.799" r="7.60227" fill="#C4C4C4"/>
<circle cx="283.08" cy="342.799" r="7.60227" fill="#C4C4C4"/>
<circle cx="311.799" cy="342.799" r="7.60227" fill="#C4C4C4"/>
<circle cx="340.519" cy="342.799" r="7.60227" fill="#C4C4C4"/>
<circle cx="369.239" cy="342.799" r="7.60227" fill="#C4C4C4"/>
<circle cx="397.958" cy="342.799" r="7.60227" fill="#C4C4C4"/>
<circle cx="426.678" cy="342.799" r="7.60227" fill="#C4C4C4"/>
<circle cx="455.398" cy="342.799" r="7.60227" fill="#C4C4C4"/>
<circle cx="484.117" cy="342.799" r="7.60227" fill="#C4C4C4"/>
<circle cx="512.837" cy="342.799" r="7.60227" fill="#C4C4C4"/>
<circle cx="541.557" cy="342.799" r="7.60227" fill="#C4C4C4"/>
<circle cx="570.277" cy="342.799" r="7.60227" fill="#C4C4C4"/>
<circle cx="598.996" cy="342.799" r="7.60227" fill="#C4C4C4"/>
<circle cx="627.716" cy="342.799" r="7.60227" fill="#C4C4C4"/>
<circle cx="656.436" cy="342.799" r="7.60227" fill="#C4C4C4"/>
<circle cx="685.155" cy="342.799" r="7.60227" fill="#C4C4C4"/>
<circle cx="713.875" cy="342.799" r="7.60227" fill="#C4C4C4"/>
<circle cx="742.595" cy="342.799" r="7.60227" fill="#C4C4C4"/>
<circle cx="771.314" cy="342.799" r="7.60227" fill="#C4C4C4"/>
<circle cx="800.034" cy="342.799" r="7.60227" fill="#C4C4C4"/>
<circle cx="828.754" cy="342.799" r="7.60227" fill="#C4C4C4"/>
<circle cx="857.474" cy="342.799" r="7.60227" fill="#C4C4C4"/>
<circle cx="886.193" cy="342.799" r="7.60227" fill="#C4C4C4"/>
<circle cx="914.913" cy="342.799" r="7.60227" fill="#C4C4C4"/>
<circle cx="943.633" cy="342.799" r="7.60227" fill="#C4C4C4"/>
<circle cx="972.352" cy="342.799" r="7.60227" fill="#C4C4C4"/>
<circle cx="1001.07" cy="342.799" r="7.60227" fill="#C4C4C4"/>
<circle cx="24.6023" cy="371.519" r="7.60227" fill="#C4C4C4"/>
<circle cx="53.322" cy="371.519" r="7.60227" fill="#C4C4C4"/>
<circle cx="82.0417" cy="371.519" r="7.60227" fill="#C4C4C4"/>
<circle cx="110.761" cy="371.519" r="7.60227" fill="#C4C4C4"/>
<circle cx="139.481" cy="371.519" r="7.60227" fill="#C4C4C4"/>
<circle cx="168.201" cy="371.519" r="7.60227" fill="#C4C4C4"/>
<circle cx="196.92" cy="371.519" r="7.60227" fill="#C4C4C4"/>
<circle cx="225.64" cy="371.519" r="7.60227" fill="#C4C4C4"/>
<circle cx="254.36" cy="371.519" r="7.60227" fill="#C4C4C4"/>
<circle cx="283.08" cy="371.519" r="7.60227" fill="#C4C4C4"/>
<circle cx="311.799" cy="371.519" r="7.60227" fill="#C4C4C4"/>
<circle cx="340.519" cy="371.519" r="7.60227" fill="#C4C4C4"/>
<circle cx="369.239" cy="371.519" r="7.60227" fill="#C4C4C4"/>
<circle cx="397.958" cy="371.519" r="7.60227" fill="#C4C4C4"/>
<circle cx="426.678" cy="371.519" r="7.60227" fill="#C4C4C4"/>
<circle cx="455.398" cy="371.519" r="7.60227" fill="#C4C4C4"/>
<circle cx="484.117" cy="371.519" r="7.60227" fill="#C4C4C4"/>
<circle cx="512.837" cy="371.519" r="7.60227" fill="#C4C4C4"/>
<circle cx="541.557" cy="371.519" r="7.60227" fill="#C4C4C4"/>
<circle cx="570.277" cy="371.519" r="7.60227" fill="#C4C4C4"/>
<circle cx="598.996" cy="371.519" r="7.60227" fill="#C4C4C4"/>
<circle cx="627.716" cy="371.519" r="7.60227" fill="#C4C4C4"/>
<circle cx="656.436" cy="371.519" r="7.60227" fill="#C4C4C4"/>
<circle cx="685.155" cy="371.519" r="7.60227" fill="#C4C4C4"/>
<circle cx="713.875" cy="371.519" r="7.60227" fill="#C4C4C4"/>
<circle cx="742.595" cy="371.519" r="7.60227" fill="#C4C4C4"/>
<circle cx="771.314" cy="371.519" r="7.60227" fill="#C4C4C4"/>
<circle cx="800.034" cy="371.519" r="7.60227" fill="#C4C4C4"/>
<circle cx="828.754" cy="371.519" r="7.60227" fill="#C4C4C4"/>
<circle cx="857.474" cy="371.519" r="7.60227" fill="#C4C4C4"/>
<circle cx="886.193" cy="371.519" r="7.60227" fill="#C4C4C4"/>
<circle cx="914.913" cy="371.519" r="7.60227" fill="#C4C4C4"/>
<circle cx="943.633" cy="371.519" r="7.60227" fill="#C4C4C4"/>
<circle cx="972.352" cy="371.519" r="7.60227" fill="#C4C4C4"/>
<circle cx="1001.07" cy="371.519" r="7.60227" fill="#C4C4C4"/>
<circle cx="24.6023" cy="400.238" r="7.60227" fill="#C4C4C4"/>
<circle cx="53.322" cy="400.238" r="7.60227" fill="#C4C4C4"/>
<circle cx="82.0417" cy="400.238" r="7.60227" fill="#C4C4C4"/>
<circle cx="110.761" cy="400.238" r="7.60227" fill="#C4C4C4"/>
<circle cx="139.481" cy="400.238" r="7.60227" fill="#C4C4C4"/>
<circle cx="168.201" cy="400.238" r="7.60227" fill="#C4C4C4"/>
<circle cx="196.92" cy="400.238" r="7.60227" fill="#C4C4C4"/>
<circle cx="225.64" cy="400.238" r="7.60227" fill="#C4C4C4"/>
<circle cx="254.36" cy="400.238" r="7.60227" fill="#C4C4C4"/>
<circle cx="283.08" cy="400.238" r="7.60227" fill="#C4C4C4"/>
<circle cx="311.799" cy="400.238" r="7.60227" fill="#C4C4C4"/>
<circle cx="340.519" cy="400.238" r="7.60227" fill="#C4C4C4"/>
<circle cx="369.239" cy="400.238" r="7.60227" fill="#C4C4C4"/>
<circle cx="397.958" cy="400.238" r="7.60227" fill="#C4C4C4"/>
<circle cx="426.678" cy="400.238" r="7.60227" fill="#C4C4C4"/>
<circle cx="455.398" cy="400.238" r="7.60227" fill="#C4C4C4"/>
<circle cx="484.117" cy="400.238" r="7.60227" fill="#C4C4C4"/>
<circle cx="512.837" cy="400.238" r="7.60227" fill="#C4C4C4"/>
<circle cx="541.557" cy="400.238" r="7.60227" fill="#C4C4C4"/>
<circle cx="570.277" cy="400.238" r="7.60227" fill="#C4C4C4"/>
<circle cx="598.996" cy="400.238" r="7.60227" fill="#C4C4C4"/>
<circle cx="627.716" cy="400.238" r="7.60227" fill="#C4C4C4"/>
<circle cx="656.436" cy="400.238" r="7.60227" fill="#C4C4C4"/>
<circle cx="685.155" cy="400.238" r="7.60227" fill="#C4C4C4"/>
<circle cx="713.875" cy="400.238" r="7.60227" fill="#C4C4C4"/>
<circle cx="742.595" cy="400.238" r="7.60227" fill="#C4C4C4"/>
<circle cx="771.314" cy="400.238" r="7.60227" fill="#C4C4C4"/>
<circle cx="800.034" cy="400.238" r="7.60227" fill="#C4C4C4"/>
<circle cx="828.754" cy="400.238" r="7.60227" fill="#C4C4C4"/>
<circle cx="857.474" cy="400.238" r="7.60227" fill="#C4C4C4"/>
<circle cx="886.193" cy="400.238" r="7.60227" fill="#C4C4C4"/>
<circle cx="914.913" cy="400.238" r="7.60227" fill="#C4C4C4"/>
<circle cx="943.633" cy="400.238" r="7.60227" fill="#C4C4C4"/>
<circle cx="972.352" cy="400.238" r="7.60227" fill="#C4C4C4"/>
<circle cx="1001.07" cy="400.238" r="7.60227" fill="#C4C4C4"/>
<circle cx="24.6023" cy="428.958" r="7.60227" fill="#C4C4C4"/>
<circle cx="53.322" cy="428.958" r="7.60227" fill="#C4C4C4"/>
<circle cx="82.0417" cy="428.958" r="7.60227" fill="#C4C4C4"/>
<circle cx="110.761" cy="428.958" r="7.60227" fill="#C4C4C4"/>
<circle cx="139.481" cy="428.958" r="7.60227" fill="#C4C4C4"/>
<circle cx="168.201" cy="428.958" r="7.60227" fill="#C4C4C4"/>
<circle cx="196.92" cy="428.958" r="7.60227" fill="#C4C4C4"/>
<circle cx="225.64" cy="428.958" r="7.60227" fill="#C4C4C4"/>
<circle cx="254.36" cy="428.958" r="7.60227" fill="#C4C4C4"/>
<circle cx="283.08" cy="428.958" r="7.60227" fill="#C4C4C4"/>
<circle cx="311.799" cy="428.958" r="7.60227" fill="#C4C4C4"/>
<circle cx="340.519" cy="428.958" r="7.60227" fill="#C4C4C4"/>
<circle cx="369.239" cy="428.958" r="7.60227" fill="#C4C4C4"/>
<circle cx="397.958" cy="428.958" r="7.60227" fill="#C4C4C4"/>
<circle cx="426.678" cy="428.958" r="7.60227" fill="#C4C4C4"/>
<circle cx="455.398" cy="428.958" r="7.60227" fill="#C4C4C4"/>
<circle cx="484.117" cy="428.958" r="7.60227" fill="#C4C4C4"/>
<circle cx="512.837" cy="428.958" r="7.60227" fill="#C4C4C4"/>
<circle cx="541.557" cy="428.958" r="7.60227" fill="#C4C4C4"/>
<circle cx="570.277" cy="428.958" r="7.60227" fill="#C4C4C4"/>
<circle cx="598.996" cy="428.958" r="7.60227" fill="#C4C4C4"/>
<circle cx="627.716" cy="428.958" r="7.60227" fill="#C4C4C4"/>
<circle cx="656.436" cy="428.958" r="7.60227" fill="#C4C4C4"/>
<circle cx="685.155" cy="428.958" r="7.60227" fill="#C4C4C4"/>
<circle cx="713.875" cy="428.958" r="7.60227" fill="#C4C4C4"/>
<circle cx="742.595" cy="428.958" r="7.60227" fill="#C4C4C4"/>
<circle cx="771.314" cy="428.958" r="7.60227" fill="#C4C4C4"/>
<circle cx="800.034" cy="428.958" r="7.60227" fill="#C4C4C4"/>
<circle cx="828.754" cy="428.958" r="7.60227" fill="#C4C4C4"/>
<circle cx="857.474" cy="428.958" r="7.60227" fill="#C4C4C4"/>
<circle cx="886.193" cy="428.958" r="7.60227" fill="#C4C4C4"/>
<circle cx="914.913" cy="428.958" r="7.60227" fill="#C4C4C4"/>
<circle cx="943.633" cy="428.958" r="7.60227" fill="#C4C4C4"/>
<circle cx="972.352" cy="428.958" r="7.60227" fill="#C4C4C4"/>
<circle cx="1001.07" cy="428.958" r="7.60227" fill="#C4C4C4"/>
<circle cx="24.6023" cy="457.678" r="7.60227" fill="#C4C4C4"/>
<circle cx="53.322" cy="457.678" r="7.60227" fill="#C4C4C4"/>
<circle cx="82.0417" cy="457.678" r="7.60227" fill="#C4C4C4"/>
<circle cx="110.761" cy="457.678" r="7.60227" fill="#C4C4C4"/>
<circle cx="139.481" cy="457.678" r="7.60227" fill="#C4C4C4"/>
<circle cx="168.201" cy="457.678" r="7.60227" fill="#C4C4C4"/>
<circle cx="196.92" cy="457.678" r="7.60227" fill="#C4C4C4"/>
<circle cx="225.64" cy="457.678" r="7.60227" fill="#C4C4C4"/>
<circle cx="254.36" cy="457.678" r="7.60227" fill="#C4C4C4"/>
<circle cx="283.08" cy="457.678" r="7.60227" fill="#C4C4C4"/>
<circle cx="311.799" cy="457.678" r="7.60227" fill="#C4C4C4"/>
<circle cx="340.519" cy="457.678" r="7.60227" fill="#C4C4C4"/>
<circle cx="369.239" cy="457.678" r="7.60227" fill="#C4C4C4"/>
<circle cx="397.958" cy="457.678" r="7.60227" fill="#C4C4C4"/>
<circle cx="426.678" cy="457.678" r="7.60227" fill="#C4C4C4"/>
<circle cx="455.398" cy="457.678" r="7.60227" fill="#C4C4C4"/>
<circle cx="484.117" cy="457.678" r="7.60227" fill="#C4C4C4"/>
<circle cx="512.837" cy="457.678" r="7.60227" fill="#C4C4C4"/>
<circle cx="541.557" cy="457.678" r="7.60227" fill="#C4C4C4"/>
<circle cx="570.277" cy="457.678" r="7.60227" fill="#C4C4C4"/>
<circle cx="598.996" cy="457.678" r="7.60227" fill="#C4C4C4"/>
<circle cx="627.716" cy="457.678" r="7.60227" fill="#C4C4C4"/>
<circle cx="656.436" cy="457.678" r="7.60227" fill="#C4C4C4"/>
<circle cx="685.155" cy="457.678" r="7.60227" fill="#C4C4C4"/>
<circle cx="713.875" cy="457.678" r="7.60227" fill="#C4C4C4"/>
<circle cx="742.595" cy="457.678" r="7.60227" fill="#C4C4C4"/>
<circle cx="771.314" cy="457.678" r="7.60227" fill="#C4C4C4"/>
<circle cx="800.034" cy="457.678" r="7.60227" fill="#C4C4C4"/>
<circle cx="828.754" cy="457.678" r="7.60227" fill="#C4C4C4"/>
<circle cx="857.474" cy="457.678" r="7.60227" fill="#C4C4C4"/>
<circle cx="886.193" cy="457.678" r="7.60227" fill="#C4C4C4"/>
<circle cx="914.913" cy="457.678" r="7.60227" fill="#C4C4C4"/>
<circle cx="943.633" cy="457.678" r="7.60227" fill="#C4C4C4"/>
<circle cx="972.352" cy="457.678" r="7.60227" fill="#C4C4C4"/>
<circle cx="1001.07" cy="457.678" r="7.60227" fill="#C4C4C4"/>
<circle cx="24.6023" cy="486.398" r="7.60227" fill="#C4C4C4"/>
<circle cx="53.322" cy="486.398" r="7.60227" fill="#C4C4C4"/>
<circle cx="82.0417" cy="486.398" r="7.60227" fill="#C4C4C4"/>
<circle cx="110.761" cy="486.398" r="7.60227" fill="#C4C4C4"/>
<circle cx="139.481" cy="486.398" r="7.60227" fill="#C4C4C4"/>
<circle cx="168.201" cy="486.398" r="7.60227" fill="#C4C4C4"/>
<circle cx="196.92" cy="486.398" r="7.60227" fill="#C4C4C4"/>
<circle cx="225.64" cy="486.398" r="7.60227" fill="#C4C4C4"/>
<circle cx="254.36" cy="486.398" r="7.60227" fill="#C4C4C4"/>
<circle cx="283.08" cy="486.398" r="7.60227" fill="#C4C4C4"/>
<circle cx="311.799" cy="486.398" r="7.60227" fill="#C4C4C4"/>
<circle cx="340.519" cy="486.398" r="7.60227" fill="#C4C4C4"/>
<circle cx="369.239" cy="486.398" r="7.60227" fill="#C4C4C4"/>
<circle cx="397.958" cy="486.398" r="7.60227" fill="#C4C4C4"/>
<circle cx="426.678" cy="486.398" r="7.60227" fill="#C4C4C4"/>
<circle cx="455.398" cy="486.398" r="7.60227" fill="#C4C4C4"/>
<circle cx="484.117" cy="486.398" r="7.60227" fill="#C4C4C4"/>
<circle cx="512.837" cy="486.398" r="7.60227" fill="#C4C4C4"/>
<circle cx="541.557" cy="486.398" r="7.60227" fill="#C4C4C4"/>
<circle cx="570.277" cy="486.398" r="7.60227" fill="#C4C4C4"/>
<circle cx="598.996" cy="486.398" r="7.60227" fill="#C4C4C4"/>
<circle cx="627.716" cy="486.398" r="7.60227" fill="#C4C4C4"/>
<circle cx="656.436" cy="486.398" r="7.60227" fill="#C4C4C4"/>
<circle cx="685.155" cy="486.398" r="7.60227" fill="#C4C4C4"/>
<circle cx="713.875" cy="486.398" r="7.60227" fill="#C4C4C4"/>
<circle cx="742.595" cy="486.398" r="7.60227" fill="#C4C4C4"/>
<circle cx="771.314" cy="486.398" r="7.60227" fill="#C4C4C4"/>
<circle cx="800.034" cy="486.398" r="7.60227" fill="#C4C4C4"/>
<circle cx="828.754" cy="486.398" r="7.60227" fill="#C4C4C4"/>
<circle cx="857.474" cy="486.398" r="7.60227" fill="#C4C4C4"/>
<circle cx="886.193" cy="486.398" r="7.60227" fill="#C4C4C4"/>
<circle cx="914.913" cy="486.398" r="7.60227" fill="#C4C4C4"/>
<circle cx="943.633" cy="486.398" r="7.60227" fill="#C4C4C4"/>
<circle cx="972.352" cy="486.398" r="7.60227" fill="#C4C4C4"/>
<circle cx="1001.07" cy="486.398" r="7.60227" fill="#C4C4C4"/>
</svg>
